# xmcd
#
# Track frame offsets: 
#        183
#        9910
#        23723
#        38145
#        56065
#        68875
#        82528
#        97785
#        112715
#        128213
#
# Disc length: 1887 seconds
#
# Revision: 1
# Processed by: cddbd v1.5.2PL0 Copyright (c) Steve Scherf et al.
# Submitted via: ExactAudioCopy v1.1
#
DISCID=65075d0a
DTITLE=George Fox - Spice Of Life
DYEAR=1991
DGENRE=Country
TTITLE0=There Goes My Love
TTITLE1=Fell In Love And I Can't Get Out
TTITLE2=Only The Best
TTITLE3=I Know Where You Go
TTITLE4=It Don't Really Matter Why
TTITLE5=Wastin' Time
TTITLE6=Everything About You
TTITLE7=Here Today, Here Tomorrow
TTITLE8=Spice Of Life
TTITLE9=I Surrender
EXTD=more info\nMillenniumMusicProjectFormat, syntax as follows:\nTitl
EXTD=e{Subtitle}[info](Lyricist;Composer;Date,Artist,Location)[info]\n
EXTD=corrections to: windking3@yahoo.com
EXTT0=
EXTT1=
EXTT2=
EXTT3=
EXTT4=
EXTT5=
EXTT6=
EXTT7=
EXTT8=
EXTT9=
PLAYORDER=
